# Blender v2.79 (sub 0) OBJ File: ''
# www.blender.org
mtllib box.mtl
o Parent_Cube.001
v -1.000000 0.405642 1.000000
v -1.000000 2.405642 1.000000
v -1.000000 0.405642 -1.000000
v -1.000000 2.405642 -1.000000
v 1.000000 0.405642 1.000000
v 1.000000 2.405642 1.000000
v 1.000000 0.405642 -1.000000
v 1.000000 2.405642 -1.000000
vn -1.0000 0.0000 0.0000
vn 0.0000 0.0000 -1.0000
vn 1.0000 0.0000 0.0000
vn 0.0000 0.0000 1.0000
vn 0.0000 -1.0000 0.0000
vn 0.0000 1.0000 0.0000
usemtl None
s off
f 1//1 2//1 4//1 3//1
f 3//2 4//2 8//2 7//2
f 7//3 8//3 6//3 5//3
f 5//4 6//4 2//4 1//4
f 3//5 7//5 5//5 1//5
f 8//6 4//6 2//6 6//6
o Child2_Cube.003
v -0.536094 0.869548 -3.057528
v -0.536094 1.941736 -3.057528
v -0.536094 0.869548 -4.129715
v -0.536094 1.941736 -4.129715
v 0.536094 0.869548 -3.057528
v 0.536094 1.941736 -3.057528
v 0.536094 0.869548 -4.129715
v 0.536094 1.941736 -4.129715
vn -1.0000 0.0000 0.0000
vn 0.0000 0.0000 -1.0000
vn 1.0000 0.0000 0.0000
vn 0.0000 0.0000 1.0000
vn 0.0000 -1.0000 0.0000
vn 0.0000 1.0000 0.0000
usemtl None
s off
f 9//7 10//7 12//7 11//7
f 11//8 12//8 16//8 15//8
f 15//9 16//9 14//9 13//9
f 13//10 14//10 10//10 9//10
f 11//11 15//11 13//11 9//11
f 16//12 12//12 10//12 14//12
o Child1_Cube.002
v -0.507462 0.898180 4.197053
v -0.507462 1.913104 4.197053
v -0.507462 0.898180 3.182129
v -0.507462 1.913104 3.182129
v 0.507462 0.898180 4.197053
v 0.507462 1.913104 4.197053
v 0.507462 0.898180 3.182129
v 0.507462 1.913104 3.182129
vn -1.0000 0.0000 0.0000
vn 0.0000 0.0000 -1.0000
vn 1.0000 0.0000 0.0000
vn 0.0000 0.0000 1.0000
vn 0.0000 -1.0000 0.0000
vn 0.0000 1.0000 0.0000
usemtl None
s off
f 17//13 18//13 20//13 19//13
f 19//14 20//14 24//14 23//14
f 23//15 24//15 22//15 21//15
f 21//16 22//16 18//16 17//16
f 19//17 23//17 21//17 17//17
f 24//18 20//18 18//18 22//18
